<svg width="88" height="34" viewBox="0 0 88 34" fill="none" xmlns="http://www.w3.org/2000/svg">
<path d="M30.694 7.56678V13.4646C30.694 13.6621 30.8356 13.8101 31.0243 13.8101H32.6522C32.8409 13.8101 32.9825 13.6374 32.9825 13.4646V7.5421L37.064 1.37279C37.2055 1.12602 37.064 0.829895 36.7809 0.829895H34.9643C34.8227 0.829895 34.7283 0.928604 34.6811 1.00264L31.85 5.2718L29.0189 1.00264C28.9718 0.928604 28.8774 0.829895 28.7358 0.829895H26.9192C26.6361 0.829895 26.4945 1.12602 26.6361 1.37279L30.694 7.56678Z" fill="#1A1A1A"/>
<path fill-rule="evenodd" clip-rule="evenodd" d="M51.1958 7.3447C51.1958 11.0463 48.3647 13.9829 44.8259 13.9829C41.287 13.9829 38.4795 11.0463 38.4795 7.3447C38.4795 3.64311 41.287 0.657166 44.8259 0.657166C48.3647 0.657166 51.1958 3.64311 51.1958 7.3447ZM48.9074 7.3447C48.9074 5.02504 47.0672 3.07553 44.8259 3.07553C42.6082 3.07553 40.7916 5.00036 40.768 7.3447C40.768 9.68904 42.5846 11.5892 44.8259 11.5892C47.0672 11.5892 48.9074 9.68904 48.9074 7.3447Z" fill="#1A1A1A"/>
<path d="M58.5332 13.9829C61.3407 13.9829 63.4641 11.7126 63.4641 8.8994V1.2001C63.4641 1.00268 63.2989 0.854614 63.1338 0.854614H61.4587C61.2699 0.854614 61.1284 1.02736 61.1284 1.2001V8.80069C61.1284 10.3554 60.0903 11.5892 58.5332 11.5892C56.9761 11.5892 55.9616 10.3554 55.9616 8.77601V1.2001C55.9616 1.00268 55.8201 0.854614 55.6313 0.854614H53.9563C53.7675 0.854614 53.626 1.02736 53.626 1.2001V8.8994C53.626 11.7126 55.7493 13.9829 58.5332 13.9829Z" fill="#1A1A1A"/>
<path d="M9.62574 30.3932C9.50778 30.2699 9.31904 30.2699 9.17748 30.3932C8.42252 31.0349 7.52601 31.4544 6.46434 31.4544C4.19946 31.4544 2.5008 29.4802 2.5008 27.1852C2.5008 24.8409 4.17587 22.8667 6.44075 22.8667C7.43164 22.8667 8.42252 23.2862 9.17748 23.9525C9.31904 24.1006 9.50778 24.1006 9.62574 23.9525L10.711 22.7927C10.8525 22.6446 10.8525 22.4225 10.6874 22.2744C9.48418 21.1393 8.1866 20.547 6.39357 20.547C2.85469 20.5223 0 23.5083 0 27.2099C0 30.9115 2.85469 33.8481 6.39357 33.8481C7.97426 33.8481 9.48418 33.2805 10.6874 32.0466C10.8054 31.9232 10.8525 31.6765 10.711 31.5531L9.62574 30.3932Z" fill="#1A1A1A"/>
<path fill-rule="evenodd" clip-rule="evenodd" d="M12.0796 27.2099C12.0796 23.5083 14.8871 20.5223 18.426 20.5223C21.9884 20.5223 24.7959 23.5083 24.7959 27.2099C24.7959 30.9115 21.9648 33.8481 18.426 33.8481C14.8871 33.8481 12.0796 30.9115 12.0796 27.2099ZM14.3681 27.2099C14.3681 29.5542 16.1847 31.4544 18.426 31.4544C20.6673 31.4544 22.5075 29.5542 22.5075 27.2099C22.5075 24.8902 20.6673 22.9407 18.426 22.9407C16.1847 22.9407 14.3681 24.8655 14.3681 27.2099Z" fill="#1A1A1A"/>
<path d="M37.2525 20.7198H35.6246C35.4359 20.7198 35.2943 20.8925 35.2943 21.0652V28.7152H35.2708L27.9099 20.5223H27.4616C27.2729 20.5223 27.1313 20.6704 27.1313 20.8678V33.3298C27.1313 33.5272 27.2965 33.6753 27.4616 33.6753H29.0659C29.2547 33.6753 29.3962 33.5026 29.3962 33.3298V25.3591H29.4198L36.8279 33.8727H37.2525C37.4413 33.8727 37.5828 33.7247 37.5828 33.5272V21.0652C37.6064 20.8925 37.4413 20.7198 37.2525 20.7198Z" fill="#1A1A1A"/>
<path d="M87.5988 31.4544H83.0927V21.0653C83.0927 20.8679 82.9275 20.7198 82.7624 20.7198H81.1345C80.9458 20.7198 80.8042 20.8925 80.8042 21.0653V33.3299C80.8042 33.5273 80.9458 33.6753 81.1345 33.6753H87.6224C87.8112 33.6753 87.9527 33.5026 87.9527 33.3299V31.7999C87.9291 31.6271 87.7876 31.4544 87.5988 31.4544Z" fill="#1A1A1A"/>
<path fill-rule="evenodd" clip-rule="evenodd" d="M58.6037 20.7198C60.727 20.7198 62.4729 22.4965 62.4729 24.6928C62.4729 26.3956 61.3876 27.8022 59.8541 28.4438L62.2841 33.1571C62.4021 33.4039 62.2841 33.7 61.9774 33.7H60.1136C59.9485 33.7 59.8777 33.6013 59.8305 33.5273L57.4713 28.6165H55.5131V33.3299C55.5131 33.5026 55.3715 33.6753 55.1828 33.6753H53.5549C53.3662 33.6753 53.2246 33.5273 53.2246 33.3299V21.0653C53.2246 20.8925 53.3662 20.7198 53.5549 20.7198H58.6037ZM55.5367 26.6176H58.415C59.3587 26.6176 60.1844 25.7786 60.1608 24.7422C60.1608 23.7551 59.3587 22.9407 58.415 22.9407H55.5367V26.6176Z" fill="#1A1A1A"/>
<path fill-rule="evenodd" clip-rule="evenodd" d="M64.9268 27.2099C64.9268 23.5083 67.7343 20.5223 71.2731 20.5223C74.812 20.5223 77.6431 23.5083 77.6431 27.2099C77.6431 30.9115 74.812 33.8481 71.2731 33.8481C67.7343 33.8481 64.9268 30.9115 64.9268 27.2099ZM67.2152 27.2099C67.2152 29.5542 69.0319 31.4544 71.2731 31.4544C73.5144 31.4544 75.3546 29.5542 75.3546 27.2099C75.3546 24.8902 73.5144 22.9407 71.2731 22.9407C69.0319 22.9407 67.2152 24.8655 67.2152 27.2099Z" fill="#1A1A1A"/>
<path d="M87.8582 18.104V16.574C87.8582 16.3766 87.7166 16.2285 87.5279 16.2285H48.7183H40.9799H0.589572C0.400832 16.2285 0.259277 16.4013 0.259277 16.574V18.104C0.259277 18.3014 0.400832 18.4495 0.589572 18.4495H5.42603H7.26625H40.9563H43.6695V33.3052C43.6695 33.5026 43.8346 33.6507 43.9998 33.6507H45.6512C45.84 33.6507 45.9815 33.4779 45.9815 33.3052V18.4741H48.6947H87.5279C87.7166 18.4741 87.8582 18.3014 87.8582 18.104Z" fill="#1A1A1A"/>
</svg>
