<svg width="24" height="24" viewBox="0 0 24 24" fill="none" xmlns="http://www.w3.org/2000/svg">
<circle cx="12" cy="12" r="12" fill="#8E8E8E"/>
<path d="M17.6973 9.21619V13.8906C18.5737 13.5915 19.1998 12.6491 19.1998 11.5533C19.1998 10.4576 18.5737 9.51539 17.6973 9.21619Z" fill="white"/>
<path d="M16.2588 5.60065C15.8369 5.60065 15.5641 5.87313 15.5641 6.29505C14.5204 7.76529 12.5084 8.81697 10.1572 9.25857V13.848C12.5086 14.2898 14.5204 15.3413 15.5641 16.8115C15.5641 17.2336 15.8369 17.5059 16.2588 17.5059C16.6807 17.5059 16.9532 17.2334 16.9532 16.8115V6.29521C16.9532 5.87329 16.6807 5.60065 16.2588 5.60065Z" fill="white"/>
<path d="M9.36364 13.8102V9.29626H6.98252C5.65644 9.29626 4.7998 10.1529 4.7998 11.4788V11.6276C4.7998 12.9537 5.65644 13.8103 6.98252 13.8103H9.36364V13.8102Z" fill="white"/>
<path d="M9.06825 14.505H6.81641L7.59305 17.5669C7.75609 18.2098 8.27657 18.5194 8.91929 18.3567C9.56201 18.1935 9.87193 17.6732 9.70889 17.0304L9.06825 14.505Z" fill="white"/>
</svg>
