<svg width="24" height="24" viewBox="0 0 24 24" fill="none" xmlns="http://www.w3.org/2000/svg">
<circle cx="12" cy="12" r="12" fill="#8E8E8E"/>
<path d="M4.87988 16.6812C5.50809 16.2651 8.84356 14.9263 9.19256 14.9564C9.22746 14.5453 9.26735 14.1341 9.30225 13.718C9.30723 13.6729 9.2823 13.6127 9.25239 13.5826C8.83359 13.1815 8.77376 12.625 8.60923 12.1135C8.57931 12.0283 8.56436 11.938 8.53444 11.8277C8.25524 11.908 8.14057 11.7275 8.07575 11.5018C7.93116 10.9653 7.77661 10.4289 7.66692 9.88234C7.59712 9.5414 7.74171 9.4361 8.19042 9.4712C8.18045 9.3609 8.16051 9.2556 8.1655 9.15031C8.20538 8.318 8.24028 7.48569 8.31008 6.65338C8.33003 6.41271 8.42974 6.16202 8.55438 5.95143C9.20752 4.87344 10.1349 4.18152 11.4062 4.0311C12.9967 3.84559 14.2082 4.4974 15.1156 5.78597C15.4597 6.27232 15.5295 6.8389 15.5494 7.40547C15.5693 8.08736 15.5544 8.76925 15.5544 9.4712C15.6641 9.46117 15.7339 9.44112 15.8037 9.45115C15.9782 9.46619 16.1178 9.55142 16.0978 9.74697C16.033 10.4238 15.8785 11.0807 15.5843 11.6924C15.5444 11.7776 15.3849 11.8077 15.2104 11.903C15.1256 12.1787 15.0259 12.5497 14.9013 12.9057C14.8364 13.0912 14.7467 13.2818 14.622 13.4272C14.4824 13.5876 14.4376 13.7481 14.4625 13.9486C14.5024 14.2795 14.5323 14.6105 14.5672 14.9063C14.7417 14.9464 14.8963 14.9614 15.0309 15.0166C16.2175 15.508 17.4041 16.0043 18.5907 16.5007C18.6904 16.5408 18.7802 16.596 18.8799 16.6461C15.5295 20.9882 8.52946 21.2338 4.87988 16.6812Z" fill="white"/>
</svg>
